<mxfile host="app.diagrams.net" modified="2023-04-21T02:55:08.935Z" agent="Mozilla/5.0 (Windows NT 10.0; Win64; x64) AppleWebKit/537.36 (KHTML, like Gecko) Chrome/110.0.0.0 Safari/537.36" etag="Jjxi-ZZExowJkC5-6otG" version="21.1.9" type="github">
  <diagram name="第 1 页" id="umncSmEJ6AAhgZ5abvOv">
    <mxGraphModel dx="1050" dy="517" grid="1" gridSize="10" guides="1" tooltips="1" connect="1" arrows="1" fold="1" page="1" pageScale="1" pageWidth="827" pageHeight="1169" math="0" shadow="0">
      <root>
        <mxCell id="0" />
        <mxCell id="1" parent="0" />
        <mxCell id="znBwOu5tkRGVKlOzRnio-11" value="&lt;font style=&quot;font-size: 19px;&quot;&gt;边缘侧&lt;/font&gt;" style="rounded=0;whiteSpace=wrap;html=1;fillColor=#dae8fc;strokeColor=#6c8ebf;" vertex="1" parent="1">
          <mxGeometry x="280" y="40" width="240" height="50" as="geometry" />
        </mxCell>
        <mxCell id="znBwOu5tkRGVKlOzRnio-73" style="edgeStyle=orthogonalEdgeStyle;rounded=0;orthogonalLoop=1;jettySize=auto;html=1;entryX=1;entryY=0.5;entryDx=0;entryDy=0;" edge="1" parent="1" source="znBwOu5tkRGVKlOzRnio-21" target="znBwOu5tkRGVKlOzRnio-3">
          <mxGeometry relative="1" as="geometry" />
        </mxCell>
        <mxCell id="znBwOu5tkRGVKlOzRnio-21" value="边缘云场景" style="rounded=0;whiteSpace=wrap;html=1;fillColor=#dae8fc;strokeColor=#6c8ebf;horizontal=1;fontSize=20;verticalAlign=middle;fontColor=default;" vertex="1" parent="1">
          <mxGeometry x="280" y="100" width="30" height="370" as="geometry" />
        </mxCell>
        <mxCell id="znBwOu5tkRGVKlOzRnio-27" value="边缘节点场景" style="rounded=0;whiteSpace=wrap;html=1;fillColor=#dae8fc;strokeColor=#6c8ebf;horizontal=1;fontSize=20;verticalAlign=middle;fontColor=default;" vertex="1" parent="1">
          <mxGeometry x="320" y="218.5" width="30" height="251.5" as="geometry" />
        </mxCell>
        <mxCell id="znBwOu5tkRGVKlOzRnio-28" value="" style="group" vertex="1" connectable="0" parent="1">
          <mxGeometry x="320" y="100" width="200" height="110" as="geometry" />
        </mxCell>
        <mxCell id="znBwOu5tkRGVKlOzRnio-12" value="" style="rounded=0;whiteSpace=wrap;html=1;fillColor=#dae8fc;strokeColor=#6c8ebf;" vertex="1" parent="znBwOu5tkRGVKlOzRnio-28">
          <mxGeometry width="200" height="110" as="geometry" />
        </mxCell>
        <mxCell id="znBwOu5tkRGVKlOzRnio-22" value="&lt;font style=&quot;font-size: 20px;&quot;&gt;ECSaaS&lt;/font&gt;" style="rounded=0;whiteSpace=wrap;html=1;strokeColor=none;fillColor=none;" vertex="1" parent="znBwOu5tkRGVKlOzRnio-28">
          <mxGeometry x="36.84210526315789" width="126.3157894736842" height="30" as="geometry" />
        </mxCell>
        <mxCell id="znBwOu5tkRGVKlOzRnio-23" value="预测性维护" style="rounded=0;whiteSpace=wrap;html=1;strokeColor=none;" vertex="1" parent="znBwOu5tkRGVKlOzRnio-28">
          <mxGeometry x="7.368421052631579" y="30" width="84.21052631578947" height="30" as="geometry" />
        </mxCell>
        <mxCell id="znBwOu5tkRGVKlOzRnio-24" value="能效优化" style="rounded=0;whiteSpace=wrap;html=1;strokeColor=none;" vertex="1" parent="znBwOu5tkRGVKlOzRnio-28">
          <mxGeometry x="109.47368421052632" y="30" width="84.21052631578947" height="30" as="geometry" />
        </mxCell>
        <mxCell id="znBwOu5tkRGVKlOzRnio-25" value="质量提升" style="rounded=0;whiteSpace=wrap;html=1;strokeColor=none;" vertex="1" parent="znBwOu5tkRGVKlOzRnio-28">
          <mxGeometry x="7.368421052631579" y="67" width="84.21052631578947" height="30" as="geometry" />
        </mxCell>
        <mxCell id="znBwOu5tkRGVKlOzRnio-26" value="合规" style="rounded=0;whiteSpace=wrap;html=1;strokeColor=none;" vertex="1" parent="znBwOu5tkRGVKlOzRnio-28">
          <mxGeometry x="109.47368421052632" y="67" width="84.21052631578947" height="30" as="geometry" />
        </mxCell>
        <mxCell id="znBwOu5tkRGVKlOzRnio-29" value="" style="group" vertex="1" connectable="0" parent="1">
          <mxGeometry x="360" y="218.5" width="160" height="91.5" as="geometry" />
        </mxCell>
        <mxCell id="znBwOu5tkRGVKlOzRnio-30" value="" style="rounded=0;whiteSpace=wrap;html=1;fillColor=#dae8fc;strokeColor=#6c8ebf;" vertex="1" parent="znBwOu5tkRGVKlOzRnio-29">
          <mxGeometry width="160" height="91.5" as="geometry" />
        </mxCell>
        <mxCell id="znBwOu5tkRGVKlOzRnio-31" value="&lt;font style=&quot;font-size: 20px;&quot;&gt;ECPaaS&lt;/font&gt;" style="rounded=0;whiteSpace=wrap;html=1;strokeColor=none;fillColor=none;" vertex="1" parent="znBwOu5tkRGVKlOzRnio-29">
          <mxGeometry x="29.473684210526315" width="101.05263157894737" height="24.954545454545457" as="geometry" />
        </mxCell>
        <mxCell id="znBwOu5tkRGVKlOzRnio-32" value="应用实例" style="rounded=0;whiteSpace=wrap;html=1;strokeColor=none;" vertex="1" parent="znBwOu5tkRGVKlOzRnio-29">
          <mxGeometry x="5.894736842105264" y="24.954545454545457" width="67.36842105263158" height="24.954545454545457" as="geometry" />
        </mxCell>
        <mxCell id="znBwOu5tkRGVKlOzRnio-33" value="部署环境" style="rounded=0;whiteSpace=wrap;html=1;strokeColor=none;" vertex="1" parent="znBwOu5tkRGVKlOzRnio-29">
          <mxGeometry x="87.57894736842105" y="24.954545454545457" width="67.36842105263158" height="24.954545454545457" as="geometry" />
        </mxCell>
        <mxCell id="znBwOu5tkRGVKlOzRnio-34" value="智能化" style="rounded=0;whiteSpace=wrap;html=1;strokeColor=none;" vertex="1" parent="znBwOu5tkRGVKlOzRnio-29">
          <mxGeometry x="5.894736842105264" y="55.73181818181818" width="67.36842105263158" height="24.954545454545457" as="geometry" />
        </mxCell>
        <mxCell id="znBwOu5tkRGVKlOzRnio-35" value="终端采集" style="rounded=0;whiteSpace=wrap;html=1;strokeColor=none;" vertex="1" parent="znBwOu5tkRGVKlOzRnio-29">
          <mxGeometry x="87.57894736842105" y="55.73181818181818" width="67.36842105263158" height="24.954545454545457" as="geometry" />
        </mxCell>
        <mxCell id="znBwOu5tkRGVKlOzRnio-38" value="" style="rounded=0;whiteSpace=wrap;html=1;fillColor=#dae8fc;strokeColor=#6c8ebf;container=0;" vertex="1" parent="1">
          <mxGeometry x="360" y="320" width="160" height="150" as="geometry" />
        </mxCell>
        <mxCell id="znBwOu5tkRGVKlOzRnio-44" value="边缘ICT基础设施" style="rounded=0;whiteSpace=wrap;html=1;strokeColor=none;" vertex="1" parent="1">
          <mxGeometry x="367.95" y="426" width="144.11" height="30" as="geometry" />
        </mxCell>
        <mxCell id="znBwOu5tkRGVKlOzRnio-39" value="&lt;font style=&quot;font-size: 20px;&quot;&gt;ECIaaS&lt;/font&gt;" style="rounded=0;whiteSpace=wrap;html=1;strokeColor=none;fillColor=none;container=0;" vertex="1" parent="1">
          <mxGeometry x="389.4736842105263" y="320" width="101.05263157894737" height="30" as="geometry" />
        </mxCell>
        <mxCell id="znBwOu5tkRGVKlOzRnio-40" value="基础设施资源管理" style="rounded=0;whiteSpace=wrap;html=1;strokeColor=none;container=0;" vertex="1" parent="1">
          <mxGeometry x="367.95" y="350" width="144.11" height="30" as="geometry" />
        </mxCell>
        <mxCell id="znBwOu5tkRGVKlOzRnio-42" value="智能化调度" style="rounded=0;whiteSpace=wrap;html=1;strokeColor=none;container=0;" vertex="1" parent="1">
          <mxGeometry x="367.95" y="387" width="144.11" height="30" as="geometry" />
        </mxCell>
        <mxCell id="znBwOu5tkRGVKlOzRnio-69" value="" style="group" vertex="1" connectable="0" parent="1">
          <mxGeometry x="620" y="40" width="190" height="450" as="geometry" />
        </mxCell>
        <mxCell id="znBwOu5tkRGVKlOzRnio-45" value="&lt;font style=&quot;font-size: 19px;&quot;&gt;中心云&lt;/font&gt;" style="rounded=0;whiteSpace=wrap;html=1;fillColor=#f8cecc;strokeColor=#b85450;" vertex="1" parent="znBwOu5tkRGVKlOzRnio-69">
          <mxGeometry width="190" height="50" as="geometry" />
        </mxCell>
        <mxCell id="znBwOu5tkRGVKlOzRnio-48" value="" style="group;fillColor=#f8cecc;strokeColor=#b85450;" vertex="1" connectable="0" parent="znBwOu5tkRGVKlOzRnio-69">
          <mxGeometry y="60" width="190" height="110" as="geometry" />
        </mxCell>
        <mxCell id="znBwOu5tkRGVKlOzRnio-49" value="" style="rounded=0;whiteSpace=wrap;html=1;fillColor=#f8cecc;strokeColor=#b85450;" vertex="1" parent="znBwOu5tkRGVKlOzRnio-48">
          <mxGeometry width="190" height="110" as="geometry" />
        </mxCell>
        <mxCell id="znBwOu5tkRGVKlOzRnio-50" value="&lt;font style=&quot;font-size: 20px;&quot;&gt;SaaS&lt;/font&gt;" style="rounded=0;whiteSpace=wrap;html=1;strokeColor=none;fillColor=none;" vertex="1" parent="znBwOu5tkRGVKlOzRnio-48">
          <mxGeometry x="34.99999999999999" width="119.99999999999999" height="30" as="geometry" />
        </mxCell>
        <mxCell id="znBwOu5tkRGVKlOzRnio-51" value="预测性维护" style="rounded=0;whiteSpace=wrap;html=1;strokeColor=none;" vertex="1" parent="znBwOu5tkRGVKlOzRnio-48">
          <mxGeometry x="6.999999999999999" y="30" width="79.99999999999999" height="30" as="geometry" />
        </mxCell>
        <mxCell id="znBwOu5tkRGVKlOzRnio-52" value="能效优化" style="rounded=0;whiteSpace=wrap;html=1;strokeColor=none;" vertex="1" parent="znBwOu5tkRGVKlOzRnio-48">
          <mxGeometry x="103.99999999999999" y="30" width="79.99999999999999" height="30" as="geometry" />
        </mxCell>
        <mxCell id="znBwOu5tkRGVKlOzRnio-53" value="质量提升" style="rounded=0;whiteSpace=wrap;html=1;strokeColor=none;" vertex="1" parent="znBwOu5tkRGVKlOzRnio-48">
          <mxGeometry x="6.999999999999999" y="67" width="79.99999999999999" height="30" as="geometry" />
        </mxCell>
        <mxCell id="znBwOu5tkRGVKlOzRnio-54" value="合规" style="rounded=0;whiteSpace=wrap;html=1;strokeColor=none;" vertex="1" parent="znBwOu5tkRGVKlOzRnio-48">
          <mxGeometry x="103.99999999999999" y="67" width="79.99999999999999" height="30" as="geometry" />
        </mxCell>
        <mxCell id="znBwOu5tkRGVKlOzRnio-55" value="" style="group;fillColor=#f8cecc;strokeColor=#b85450;" vertex="1" connectable="0" parent="znBwOu5tkRGVKlOzRnio-69">
          <mxGeometry y="178.5" width="190" height="91.5" as="geometry" />
        </mxCell>
        <mxCell id="znBwOu5tkRGVKlOzRnio-56" value="" style="rounded=0;whiteSpace=wrap;html=1;fillColor=#f8cecc;strokeColor=#b85450;" vertex="1" parent="znBwOu5tkRGVKlOzRnio-55">
          <mxGeometry width="190" height="91.5" as="geometry" />
        </mxCell>
        <mxCell id="znBwOu5tkRGVKlOzRnio-57" value="&lt;font style=&quot;font-size: 20px;&quot;&gt;PaaS&lt;/font&gt;" style="rounded=0;whiteSpace=wrap;html=1;strokeColor=none;fillColor=none;" vertex="1" parent="znBwOu5tkRGVKlOzRnio-55">
          <mxGeometry x="35" width="119.99999999999999" height="24.954545454545457" as="geometry" />
        </mxCell>
        <mxCell id="znBwOu5tkRGVKlOzRnio-58" value="应用实例" style="rounded=0;whiteSpace=wrap;html=1;strokeColor=none;" vertex="1" parent="znBwOu5tkRGVKlOzRnio-55">
          <mxGeometry x="7" y="24.954545454545457" width="80" height="24.954545454545457" as="geometry" />
        </mxCell>
        <mxCell id="znBwOu5tkRGVKlOzRnio-59" value="部署环境" style="rounded=0;whiteSpace=wrap;html=1;strokeColor=none;" vertex="1" parent="znBwOu5tkRGVKlOzRnio-55">
          <mxGeometry x="104" y="24.954545454545457" width="80" height="24.954545454545457" as="geometry" />
        </mxCell>
        <mxCell id="znBwOu5tkRGVKlOzRnio-60" value="智能化" style="rounded=0;whiteSpace=wrap;html=1;strokeColor=none;" vertex="1" parent="znBwOu5tkRGVKlOzRnio-55">
          <mxGeometry x="7" y="55.73181818181818" width="80" height="24.954545454545457" as="geometry" />
        </mxCell>
        <mxCell id="znBwOu5tkRGVKlOzRnio-61" value="终端采集" style="rounded=0;whiteSpace=wrap;html=1;strokeColor=none;" vertex="1" parent="znBwOu5tkRGVKlOzRnio-55">
          <mxGeometry x="104" y="55.73181818181818" width="80" height="24.954545454545457" as="geometry" />
        </mxCell>
        <mxCell id="znBwOu5tkRGVKlOzRnio-68" value="" style="group" vertex="1" connectable="0" parent="znBwOu5tkRGVKlOzRnio-69">
          <mxGeometry y="280" width="190" height="150" as="geometry" />
        </mxCell>
        <mxCell id="znBwOu5tkRGVKlOzRnio-62" value="" style="rounded=0;whiteSpace=wrap;html=1;fillColor=#f8cecc;strokeColor=#b85450;container=0;" vertex="1" parent="znBwOu5tkRGVKlOzRnio-68">
          <mxGeometry width="190" height="150" as="geometry" />
        </mxCell>
        <mxCell id="znBwOu5tkRGVKlOzRnio-63" value="边缘ICT基础设施" style="rounded=0;whiteSpace=wrap;html=1;strokeColor=none;" vertex="1" parent="znBwOu5tkRGVKlOzRnio-68">
          <mxGeometry x="9.440625000000054" y="106" width="171.130625" height="30" as="geometry" />
        </mxCell>
        <mxCell id="znBwOu5tkRGVKlOzRnio-64" value="&lt;font style=&quot;font-size: 20px;&quot;&gt;IaaS&lt;/font&gt;" style="rounded=0;whiteSpace=wrap;html=1;strokeColor=none;fillColor=none;container=0;" vertex="1" parent="znBwOu5tkRGVKlOzRnio-68">
          <mxGeometry x="34.999999999999915" width="119.99999999999999" height="30" as="geometry" />
        </mxCell>
        <mxCell id="znBwOu5tkRGVKlOzRnio-65" value="基础设施资源管理" style="rounded=0;whiteSpace=wrap;html=1;strokeColor=none;container=0;" vertex="1" parent="znBwOu5tkRGVKlOzRnio-68">
          <mxGeometry x="9.440625000000054" y="30" width="171.130625" height="30" as="geometry" />
        </mxCell>
        <mxCell id="znBwOu5tkRGVKlOzRnio-66" value="智能化调度" style="rounded=0;whiteSpace=wrap;html=1;strokeColor=none;container=0;" vertex="1" parent="znBwOu5tkRGVKlOzRnio-68">
          <mxGeometry x="9.440625000000054" y="67" width="171.130625" height="30" as="geometry" />
        </mxCell>
        <mxCell id="znBwOu5tkRGVKlOzRnio-70" value="" style="group" vertex="1" connectable="0" parent="1">
          <mxGeometry x="30" y="40" width="270" height="430" as="geometry" />
        </mxCell>
        <mxCell id="znBwOu5tkRGVKlOzRnio-2" value="&lt;font style=&quot;font-size: 19px;&quot;&gt;端侧&lt;/font&gt;" style="rounded=0;whiteSpace=wrap;html=1;fillColor=#ffe6cc;strokeColor=#d79b00;" vertex="1" parent="znBwOu5tkRGVKlOzRnio-70">
          <mxGeometry width="160" height="50" as="geometry" />
        </mxCell>
        <mxCell id="znBwOu5tkRGVKlOzRnio-3" value="" style="rounded=0;whiteSpace=wrap;html=1;fillColor=#ffe6cc;strokeColor=#d79b00;" vertex="1" parent="znBwOu5tkRGVKlOzRnio-70">
          <mxGeometry y="60" width="160" height="370" as="geometry" />
        </mxCell>
        <mxCell id="znBwOu5tkRGVKlOzRnio-4" value="" style="sketch=0;pointerEvents=1;shadow=0;dashed=0;html=1;strokeColor=none;labelPosition=center;verticalLabelPosition=bottom;verticalAlign=top;align=center;fillColor=#505050;shape=mxgraph.mscae.intune.user_group" vertex="1" parent="znBwOu5tkRGVKlOzRnio-70">
          <mxGeometry x="55" y="80" width="50" height="37" as="geometry" />
        </mxCell>
        <mxCell id="znBwOu5tkRGVKlOzRnio-5" value="" style="image;aspect=fixed;perimeter=ellipsePerimeter;html=1;align=center;shadow=0;dashed=0;spacingTop=3;image=img/lib/active_directory/home.svg;" vertex="1" parent="znBwOu5tkRGVKlOzRnio-70">
          <mxGeometry x="15" y="140" width="50" height="48.5" as="geometry" />
        </mxCell>
        <mxCell id="znBwOu5tkRGVKlOzRnio-6" value="" style="outlineConnect=0;dashed=0;verticalLabelPosition=bottom;verticalAlign=top;align=center;html=1;shape=mxgraph.aws3.car;fillColor=#5294CF;gradientColor=none;" vertex="1" parent="znBwOu5tkRGVKlOzRnio-70">
          <mxGeometry x="15" y="230" width="50" height="50" as="geometry" />
        </mxCell>
        <mxCell id="znBwOu5tkRGVKlOzRnio-7" value="" style="shape=image;html=1;verticalAlign=top;verticalLabelPosition=bottom;labelBackgroundColor=#ffffff;imageAspect=0;aspect=fixed;image=https://cdn0.iconfinder.com/data/icons/construction-2-21/512/construction-industry-building-08-128.png" vertex="1" parent="znBwOu5tkRGVKlOzRnio-70">
          <mxGeometry x="95" y="140" width="48" height="48" as="geometry" />
        </mxCell>
        <mxCell id="znBwOu5tkRGVKlOzRnio-8" value="" style="fontColor=#0066CC;verticalAlign=top;verticalLabelPosition=bottom;labelPosition=center;align=center;html=1;outlineConnect=0;fillColor=#CCCCCC;strokeColor=#6881B3;gradientColor=none;gradientDirection=north;strokeWidth=2;shape=mxgraph.networks.security_camera;" vertex="1" parent="znBwOu5tkRGVKlOzRnio-70">
          <mxGeometry x="101" y="240" width="40" height="30" as="geometry" />
        </mxCell>
        <mxCell id="znBwOu5tkRGVKlOzRnio-9" value="" style="sketch=0;aspect=fixed;pointerEvents=1;shadow=0;dashed=0;html=1;strokeColor=none;labelPosition=center;verticalLabelPosition=bottom;verticalAlign=top;align=center;fillColor=#00188D;shape=mxgraph.mscae.enterprise.android_phone" vertex="1" parent="znBwOu5tkRGVKlOzRnio-70">
          <mxGeometry x="65" y="310" width="30" height="50" as="geometry" />
        </mxCell>
        <mxCell id="znBwOu5tkRGVKlOzRnio-10" value="&lt;font style=&quot;font-size: 20px;&quot;&gt;用户/终端&lt;/font&gt;" style="rounded=0;whiteSpace=wrap;html=1;strokeColor=none;fillColor=none;" vertex="1" parent="znBwOu5tkRGVKlOzRnio-70">
          <mxGeometry x="20" y="390" width="120" height="30" as="geometry" />
        </mxCell>
        <mxCell id="znBwOu5tkRGVKlOzRnio-72" value="数据集成" style="rounded=0;whiteSpace=wrap;html=1;fillColor=none;strokeColor=none;" vertex="1" parent="znBwOu5tkRGVKlOzRnio-70">
          <mxGeometry x="173" y="166" width="60" height="23" as="geometry" />
        </mxCell>
        <mxCell id="znBwOu5tkRGVKlOzRnio-74" value="设备管理" style="rounded=0;whiteSpace=wrap;html=1;fillColor=none;strokeColor=none;" vertex="1" parent="znBwOu5tkRGVKlOzRnio-70">
          <mxGeometry x="173" y="243.5" width="60" height="23" as="geometry" />
        </mxCell>
        <mxCell id="znBwOu5tkRGVKlOzRnio-71" style="edgeStyle=orthogonalEdgeStyle;rounded=0;orthogonalLoop=1;jettySize=auto;html=1;exitX=0.995;exitY=0.34;exitDx=0;exitDy=0;exitPerimeter=0;entryX=0.04;entryY=0.344;entryDx=0;entryDy=0;entryPerimeter=0;" edge="1" parent="1" source="znBwOu5tkRGVKlOzRnio-3" target="znBwOu5tkRGVKlOzRnio-21">
          <mxGeometry relative="1" as="geometry">
            <Array as="points">
              <mxPoint x="189" y="227" />
            </Array>
          </mxGeometry>
        </mxCell>
        <mxCell id="znBwOu5tkRGVKlOzRnio-77" value="" style="group" vertex="1" connectable="0" parent="1">
          <mxGeometry x="539" y="125" width="60" height="23" as="geometry" />
        </mxCell>
        <mxCell id="znBwOu5tkRGVKlOzRnio-75" style="edgeStyle=orthogonalEdgeStyle;rounded=0;orthogonalLoop=1;jettySize=auto;html=1;dashed=1;endArrow=none;endFill=0;exitX=-0.006;exitY=0.416;exitDx=0;exitDy=0;exitPerimeter=0;" edge="1" parent="znBwOu5tkRGVKlOzRnio-77" source="znBwOu5tkRGVKlOzRnio-49" target="znBwOu5tkRGVKlOzRnio-12">
          <mxGeometry relative="1" as="geometry">
            <Array as="points">
              <mxPoint x="1" y="21" />
              <mxPoint x="1" y="21" />
            </Array>
          </mxGeometry>
        </mxCell>
        <mxCell id="znBwOu5tkRGVKlOzRnio-76" value="服务协同" style="rounded=0;whiteSpace=wrap;html=1;fillColor=none;strokeColor=none;" vertex="1" parent="znBwOu5tkRGVKlOzRnio-77">
          <mxGeometry width="60" height="23" as="geometry" />
        </mxCell>
        <mxCell id="znBwOu5tkRGVKlOzRnio-84" style="edgeStyle=orthogonalEdgeStyle;rounded=0;orthogonalLoop=1;jettySize=auto;html=1;entryX=1;entryY=0.25;entryDx=0;entryDy=0;exitX=0;exitY=0.25;exitDx=0;exitDy=0;dashed=1;endArrow=none;endFill=0;" edge="1" parent="1">
          <mxGeometry relative="1" as="geometry">
            <mxPoint x="520" y="249.375" as="targetPoint" />
            <mxPoint x="620" y="249.375" as="sourcePoint" />
          </mxGeometry>
        </mxCell>
        <mxCell id="znBwOu5tkRGVKlOzRnio-85" style="edgeStyle=orthogonalEdgeStyle;rounded=0;orthogonalLoop=1;jettySize=auto;html=1;entryX=1;entryY=0.25;entryDx=0;entryDy=0;exitX=0;exitY=0.25;exitDx=0;exitDy=0;dashed=1;endArrow=none;endFill=0;" edge="1" parent="1">
          <mxGeometry relative="1" as="geometry">
            <mxPoint x="519" y="280" as="targetPoint" />
            <mxPoint x="619" y="280" as="sourcePoint" />
          </mxGeometry>
        </mxCell>
        <mxCell id="znBwOu5tkRGVKlOzRnio-86" style="edgeStyle=orthogonalEdgeStyle;rounded=0;orthogonalLoop=1;jettySize=auto;html=1;entryX=1;entryY=0.25;entryDx=0;entryDy=0;exitX=0;exitY=0.25;exitDx=0;exitDy=0;dashed=1;endArrow=none;endFill=0;" edge="1" parent="1">
          <mxGeometry relative="1" as="geometry">
            <mxPoint x="520" y="308" as="targetPoint" />
            <mxPoint x="620" y="308" as="sourcePoint" />
          </mxGeometry>
        </mxCell>
        <mxCell id="znBwOu5tkRGVKlOzRnio-87" style="edgeStyle=orthogonalEdgeStyle;rounded=0;orthogonalLoop=1;jettySize=auto;html=1;entryX=1;entryY=0.25;entryDx=0;entryDy=0;exitX=0;exitY=0.25;exitDx=0;exitDy=0;dashed=1;endArrow=none;endFill=0;" edge="1" parent="1">
          <mxGeometry relative="1" as="geometry">
            <mxPoint x="520" y="220" as="targetPoint" />
            <mxPoint x="620" y="220" as="sourcePoint" />
          </mxGeometry>
        </mxCell>
        <mxCell id="znBwOu5tkRGVKlOzRnio-88" value="" style="group" vertex="1" connectable="0" parent="1">
          <mxGeometry x="540" y="200" width="60" height="23" as="geometry" />
        </mxCell>
        <mxCell id="znBwOu5tkRGVKlOzRnio-89" style="edgeStyle=orthogonalEdgeStyle;rounded=0;orthogonalLoop=1;jettySize=auto;html=1;dashed=1;endArrow=none;endFill=0;exitX=-0.006;exitY=0.416;exitDx=0;exitDy=0;exitPerimeter=0;" edge="1" parent="znBwOu5tkRGVKlOzRnio-88">
          <mxGeometry relative="1" as="geometry">
            <Array as="points">
              <mxPoint x="1" y="21" />
              <mxPoint x="1" y="21" />
            </Array>
          </mxGeometry>
        </mxCell>
        <mxCell id="znBwOu5tkRGVKlOzRnio-90" value="业务管理协同" style="rounded=0;whiteSpace=wrap;html=1;fillColor=none;strokeColor=none;" vertex="1" parent="znBwOu5tkRGVKlOzRnio-88">
          <mxGeometry x="-10" width="80" height="23" as="geometry" />
        </mxCell>
        <mxCell id="znBwOu5tkRGVKlOzRnio-91" value="应用管理协同" style="rounded=0;whiteSpace=wrap;html=1;fillColor=none;strokeColor=none;" vertex="1" parent="1">
          <mxGeometry x="530" y="230" width="80" height="23" as="geometry" />
        </mxCell>
        <mxCell id="znBwOu5tkRGVKlOzRnio-92" value="智能协同" style="rounded=0;whiteSpace=wrap;html=1;fillColor=none;strokeColor=none;" vertex="1" parent="1">
          <mxGeometry x="530" y="260" width="80" height="23" as="geometry" />
        </mxCell>
        <mxCell id="znBwOu5tkRGVKlOzRnio-93" value="数据协同" style="rounded=0;whiteSpace=wrap;html=1;fillColor=none;strokeColor=none;" vertex="1" parent="1">
          <mxGeometry x="530" y="287" width="80" height="23" as="geometry" />
        </mxCell>
        <mxCell id="znBwOu5tkRGVKlOzRnio-94" value="资源协同" style="rounded=0;whiteSpace=wrap;html=1;fillColor=none;strokeColor=none;" vertex="1" parent="1">
          <mxGeometry x="529" y="370" width="80" height="23" as="geometry" />
        </mxCell>
        <mxCell id="znBwOu5tkRGVKlOzRnio-99" style="edgeStyle=orthogonalEdgeStyle;rounded=0;orthogonalLoop=1;jettySize=auto;html=1;entryX=1;entryY=0.5;entryDx=0;entryDy=0;dashed=1;endArrow=none;endFill=0;" edge="1" parent="1" source="znBwOu5tkRGVKlOzRnio-62" target="znBwOu5tkRGVKlOzRnio-38">
          <mxGeometry relative="1" as="geometry" />
        </mxCell>
      </root>
    </mxGraphModel>
  </diagram>
</mxfile>
